<?xml version="1.0" encoding="utf-8"?>
<!-- Generator: Adobe Illustrator 16.2.0, SVG Export Plug-In . SVG Version: 6.00 Build 0)  -->
<!DOCTYPE svg PUBLIC "-//W3C//DTD SVG 1.1//EN" "http://www.w3.org/Graphics/SVG/1.1/DTD/svg11.dtd">
<svg version="1.1" id="Warstwa_1" xmlns="http://www.w3.org/2000/svg" xmlns:xlink="http://www.w3.org/1999/xlink" x="0px" y="0px"
	 width="841.891px" height="595.281px" viewBox="0 0 841.891 595.281" enable-background="new 0 0 841.891 595.281"
	 xml:space="preserve">
<title>Twitter_Logo_White-on-Blue</title>
<g id="Logo_FIXED">
	<path fill="#FFFFFF" d="M351.922,448.827c140.397,0,217.188-116.318,217.188-217.188c0-3.304,0-6.593-0.223-9.867
		c14.938-10.806,27.834-24.185,38.083-39.512c-13.932,6.174-28.71,10.222-43.843,12.01c15.935-9.539,27.861-24.543,33.559-42.22
		c-14.983,8.892-31.376,15.157-48.471,18.528c-28.908-30.739-77.262-32.224-108.001-3.315
		c-19.824,18.644-28.235,46.425-22.082,72.934c-61.375-3.077-118.559-32.066-157.318-79.753
		c-20.26,34.878-9.911,79.497,23.633,101.896c-12.147-0.359-24.03-3.637-34.646-9.554c0,0.313,0,0.64,0,0.967
		c0.01,36.336,25.623,67.633,61.239,74.827c-11.237,3.065-23.028,3.513-34.466,1.31c9.999,31.095,38.656,52.396,71.314,53.01
		c-27.03,21.243-60.42,32.775-94.799,32.74c-6.073-0.012-12.141-0.379-18.171-1.101c34.908,22.401,75.525,34.283,117.002,34.229"/>
</g>
</svg>
